<?xml version="1.0" standalone="no"?>
<!DOCTYPE svg PUBLIC "-//W3C//DTD SVG 20010904//EN"
 "http://www.w3.org/TR/2001/REC-SVG-20010904/DTD/svg10.dtd">
<svg version="1.0" xmlns="http://www.w3.org/2000/svg"
 width="700.000000pt" height="700.000000pt" viewBox="0 0 700.000000 700.000000"
 preserveAspectRatio="xMidYMid meet">
<metadata>
Created by potrace 1.11, written by Peter Selinger 2001-2013
</metadata>
<g transform="translate(0.000000,700.000000) scale(0.100000,-0.100000)"
fill="#000000" stroke="none">
<path d="M3362 6980 c-186 -49 -331 -193 -390 -384 -19 -66 -19 -215 1 -282
55 -186 203 -337 374 -383 l41 -11 4 -134 c3 -118 6 -138 24 -163 41 -55 127
-55 168 0 18 25 21 45 24 163 l4 134 41 11 c81 22 161 71 233 143 108 109 156
226 157 381 0 148 -53 277 -157 380 -76 76 -152 120 -252 145 -96 25 -177 25
-272 0z m283 -235 c130 -66 203 -214 174 -353 -14 -72 -30 -103 -82 -160 -94
-102 -248 -133 -372 -73 -61 28 -130 94 -158 147 -73 142 -19 336 117 422 97
61 221 67 321 17z"/>
<path d="M850 6655 c-199 -55 -360 -221 -399 -413 -38 -184 18 -371 149 -502
168 -168 417 -207 630 -100 l57 29 414 -416 c236 -237 428 -421 447 -429 55
-24 112 1 137 61 28 65 28 65 -420 515 l-423 425 28 56 c147 288 10 638 -296
755 -87 34 -239 42 -324 19z m274 -235 c63 -32 124 -93 156 -156 21 -41 25
-63 25 -139 0 -105 -22 -160 -91 -229 -69 -69 -124 -91 -229 -91 -75 0 -98 4
-140 24 -110 55 -177 156 -183 278 -8 148 75 275 216 328 60 23 186 15 246
-15z"/>
<path d="M5899 6659 c-349 -82 -530 -464 -369 -778 l28 -56 -423 -425 c-448
-450 -448 -450 -420 -515 25 -60 82 -85 137 -61 19 8 211 192 447 429 l414
416 57 -29 c213 -107 462 -68 630 100 72 72 130 176 149 268 60 291 -116 574
-404 647 -63 16 -187 18 -246 4z m256 -239 c63 -31 124 -92 156 -155 20 -42
24 -65 24 -140 0 -106 -22 -163 -90 -230 -67 -68 -124 -90 -230 -90 -105 0
-160 22 -229 91 -80 80 -114 202 -87 310 25 97 116 195 216 232 53 20 183 10
240 -18z"/>
<path d="M3350 5345 c-191 -33 -356 -120 -504 -268 -171 -170 -280 -390 -317
-637 -18 -128 -6 -396 25 -545 28 -133 79 -291 127 -396 18 -38 30 -71 28 -72
-2 -2 -177 -113 -389 -246 -493 -311 -477 -300 -559 -386 -163 -172 -241 -396
-229 -655 7 -137 52 -211 158 -259 45 -20 56 -21 1810 -21 1754 0 1765 1 1810
21 106 48 151 122 158 259 13 271 -66 488 -243 665 -83 83 -123 111 -500 349
-225 142 -416 264 -423 271 -11 10 -9 21 11 62 34 66 94 239 118 339 49 205
63 479 34 646 -41 238 -146 441 -311 605 -224 223 -511 319 -804 268z m292
-220 c265 -54 495 -287 583 -591 94 -325 3 -821 -209 -1138 -145 -216 -321
-329 -516 -329 -193 0 -370 112 -512 323 -215 320 -308 817 -213 1144 69 240
224 435 419 531 146 72 293 92 448 60z m-702 -2019 c285 -302 686 -343 1005
-103 61 46 145 130 201 201 l31 40 359 -229 c197 -125 388 -247 424 -270 121
-78 220 -204 261 -335 26 -81 39 -291 19 -315 -11 -13 -208 -15 -1739 -15
-1330 0 -1730 3 -1739 12 -17 17 -15 177 3 263 38 179 139 305 348 437 73 45
262 165 422 266 l290 183 30 -38 c16 -21 55 -64 85 -97z"/>
<path d="M1475 1621 c-16 -10 -81 -71 -144 -134 l-113 -116 -62 20 c-252 87
-542 -33 -658 -271 -79 -163 -79 -327 0 -490 94 -193 297 -310 517 -297 303
16 533 274 511 572 -8 120 -35 194 -102 286 l-33 45 110 110 c112 111 139 146
139 184 0 54 -57 110 -112 110 -13 0 -36 -9 -53 -19z m-351 -451 c63 -32 124
-93 156 -156 21 -41 25 -63 25 -139 0 -105 -22 -160 -91 -229 -69 -69 -124
-91 -229 -91 -75 0 -98 4 -140 24 -110 55 -177 156 -183 278 -8 148 75 275
216 328 60 23 186 15 246 -15z"/>
<path d="M5418 1624 c-30 -16 -58 -61 -58 -94 0 -38 27 -73 139 -184 l110
-110 -33 -45 c-67 -92 -94 -166 -102 -286 -22 -298 208 -556 511 -572 161 -9
302 44 415 157 72 72 130 176 149 268 61 294 -117 575 -409 648 -82 21 -211
15 -296 -15 l-62 -20 -118 120 c-151 153 -180 169 -246 133z m737 -454 c63
-31 124 -92 156 -155 20 -42 24 -65 24 -140 0 -106 -22 -163 -90 -230 -67 -68
-124 -90 -230 -90 -105 0 -160 22 -229 91 -80 80 -114 202 -87 310 25 97 116
195 216 232 53 20 183 10 240 -18z"/>
<path d="M3444 1511 c-47 -28 -54 -64 -54 -256 l0 -172 -42 -13 c-178 -53
-320 -198 -375 -384 -20 -67 -20 -216 -1 -282 43 -138 141 -265 259 -332 69
-39 192 -72 269 -72 77 0 200 33 269 72 118 67 216 194 259 332 19 66 19 215
-1 282 -55 186 -197 331 -374 384 l-43 13 0 174 c0 195 -8 231 -59 257 -40 21
-69 20 -107 -3z m191 -670 c61 -28 130 -94 158 -147 8 -16 20 -55 26 -86 29
-140 -44 -287 -176 -354 -51 -25 -69 -29 -143 -29 -74 0 -92 4 -143 29 -132
67 -205 214 -176 354 14 72 30 103 82 160 94 102 248 133 372 73z"/>
</g>
</svg>
